<?xml version="1.0" encoding="UTF-8" standalone="no"?>
<!-- Created with Inkscape (http://www.inkscape.org/) -->

<svg
   version="1.1"
   id="svg1"
   width="102.4"
   height="58.880001"
   viewBox="0 0 102.4 58.880001"
   xml:space="preserve"
   xmlns:xlink="http://www.w3.org/1999/xlink"
   xmlns="http://www.w3.org/2000/svg"
   xmlns:svg="http://www.w3.org/2000/svg"><defs
     id="defs1"><linearGradient
       id="linearGradient1"><stop
         style="stop-color:#dd8000;stop-opacity:1;"
         offset="0"
         id="stop1" /><stop
         style="stop-color:#922300;stop-opacity:1;"
         offset="1"
         id="stop2" /></linearGradient><style
       type="text/css"
       id="style872" /><style
       type="text/css"
       id="style882" /><style
       type="text/css"
       id="style884" /><style
       type="text/css"
       id="style886" /><style
       type="text/css"
       id="style888" /><style
       type="text/css"
       id="style890" /><style
       type="text/css"
       id="style892" /><style
       type="text/css"
       id="style894" /><linearGradient
       xlink:href="#linearGradient1"
       id="linearGradient2"
       x1="0"
       y1="29.440001"
       x2="102.4"
       y2="29.440001"
       gradientUnits="userSpaceOnUse" /></defs><rect
     style="fill:url(#linearGradient2);fill-opacity:0.852379"
     id="rect1"
     width="102.4"
     height="58.880001"
     x="0"
     y="0" /><g
     id="g1"
     transform="matrix(0.0569081,0,0,0.0569081,37.08681,15.326792)"
     style="stroke-width:19.8396"><path
       style="fill:#f79406;stroke-width:19.8396"
       d="m 356.389,0 c 0,0 -37.6,142.4 7.2,187.2 44.8,44.8 108.8,-4 92,-47.2 0,0 38.4,44.8 6.4,92 -32,47.2 23.2,72.8 25.6,8.8 0,0 19.2,60 -8.8,98.4 -28,38.4 -57.6,45.6 -57.6,45.6 0,0 39.2,6.4 57.6,-22.4 0,0 -4,60.8 -68,86.4 -64,25.6 -23.2,28.8 -23.2,28.8 l -248,-313.6 c 0,0 139.2,-4 116,-87.2 0,0 28,29.6 15.2,68 0,0 -48.8,32.8 -28.8,-47.2 14.4,-66.4 114.4,-97.6 114.4,-97.6 z"
       id="path1" /><path
       style="fill:#d1dbd6;stroke-width:19.8396"
       d="M 427.589,444 121.189,136 H 1.989 v 340 l 84,20 c 0,0 308.8,0 315.2,0 6.4,0 26.4,-52 26.4,-52 z"
       id="path2" /><path
       style="fill:#baccc2;stroke-width:19.8396"
       d="M 269.989,444 121.189,136 H 1.989 v 340 l 84,20 c 0,0 308.8,0 315.2,0 6.4,0 -131.2,-52 -131.2,-52 z"
       id="path3" /><path
       style="fill:#e5420a;stroke-width:19.8396"
       d="m 161.989,149.6 c 0,9.6 -10.4,18.4 -20,18.4 h -115.2 c -8.8,0 -16.8,-8 -16.8,-16.8 v -29.6 c 0,-9.6 8,-17.6 16.8,-17.6 h 118.4 c 9.6,0 16.8,6.4 16.8,16 z"
       id="path4" /><path
       style="fill:#d63205;stroke-width:19.8396"
       d="m 161.989,120 v 29.6 c 0,9.6 -10.4,18.4 -20,18.4 h -111.2 c -8.8,0 -20.8,-8.8 -20.8,-18.4 V 120"
       id="path5" /><path
       style="fill:#c11f05;stroke-width:19.8396"
       d="m 161.989,149.6 c 0,9.6 -6.4,18.4 -16,18.4 h -120.8 c -8.8,0 -15.2,-8.8 -15.2,-18.4"
       id="path6" /><path
       style="fill:#e5420a;stroke-width:19.8396"
       d="m 303.589,187.2 c -4,8.8 -14.4,12 -22.4,8 l -100.8,-46.4 c -8.8,-4 -12,-14.4 -8,-22.4 l 12,-25.6 c 4,-8.8 14.4,-12 22.4,-8 l 100.8,46.4 c 8.8,4 12,14.4 8,22.4 z"
       id="path7" /><path
       style="fill:#d63205;stroke-width:19.8396"
       d="m 315.589,161.6 -12,25.6 c -4,8.8 -14.4,12 -22.4,8 l -100.8,-46.4 c -8.8,-4 -12,-14.4 -8,-22.4 l 12,-25.6"
       id="path8" /><path
       style="fill:#c11f05;stroke-width:19.8396"
       d="m 303.589,187.2 c -4,8.8 -14.4,12 -22.4,8 l -100.8,-46.4 c -8.8,-4 -12,-14.4 -8,-22.4"
       id="path9" /><path
       style="fill:#e5420a;stroke-width:19.8396"
       d="m 233.989,230.4 c 0,9.6 -8.8,17.6 -18.4,17.6 h -106.4 c -9.6,0 -19.2,-8 -19.2,-17.6 v -28.8 c 0,-9.6 9.6,-17.6 19.2,-17.6 h 108.8 c 9.6,0 16,8.8 16,17.6 z"
       id="path10" /><path
       style="fill:#d63205;stroke-width:19.8396"
       d="m 233.989,200 v 30.4 c 0,9.6 -8.8,17.6 -18.4,17.6 h -106.4 c -9.6,0 -19.2,-8 -19.2,-17.6 V 200"
       id="path11" /><path
       style="fill:#c11f05;stroke-width:19.8396"
       d="m 233.989,230.4 c 0,9.6 -8.8,17.6 -18.4,17.6 h -106.4 c -9.6,0 -19.2,-8 -19.2,-17.6"
       id="path12" /><path
       style="fill:#e5420a;stroke-width:19.8396"
       d="m 65.989,230.4 c 0,9.6 -6.4,17.6 -16,17.6 h -25.6 c -8.8,0 -14.4,-8 -14.4,-17.6 v -28.8 c 0,-8.8 5.6,-17.6 14.4,-17.6 h 25.6 c 9.6,0 16,8.8 16,17.6 z"
       id="path13" /><path
       style="fill:#d63205;stroke-width:19.8396"
       d="m 65.989,200 v 30.4 c 0,9.6 -6.4,17.6 -16,17.6 h -25.6 c -8.8,0 -14.4,-8 -14.4,-17.6 V 200"
       id="path14" /><path
       style="fill:#c11f05;stroke-width:19.8396"
       d="m 65.989,230.4 c 0,9.6 -6.4,17.6 -16,17.6 h -25.6 c -8.8,0 -14.4,-8 -14.4,-17.6"
       id="path15" /><path
       style="fill:#e5420a;stroke-width:19.8396"
       d="m 65.989,393.6 c 0,9.6 -6.4,14.4 -16,14.4 h -25.6 c -8.8,0 -14.4,-4.8 -14.4,-14.4 v -28.8 c 0,-8.8 5.6,-12.8 14.4,-12.8 h 25.6 c 9.6,0 16,4 16,13.6 z"
       id="path16" /><path
       style="fill:#d63205;stroke-width:19.8396"
       d="m 65.989,368 v 25.6 c 0,9.6 -6.4,14.4 -16,14.4 h -25.6 c -8.8,0 -14.4,-4.8 -14.4,-14.4 V 368"
       id="path17" /><path
       style="fill:#c11f05;stroke-width:19.8396"
       d="m 65.989,392 c 0,12 -6.4,16 -16,16 h -25.6 c -8.8,0 -14.4,-4 -14.4,-16"
       id="path18" /><path
       style="fill:#e5420a;stroke-width:19.8396"
       d="m 145.989,311.2 c 0,9.6 -8,16.8 -16.8,16.8 h -102.4 c -8.8,0 -16.8,-8 -16.8,-16.8 v -29.6 c 0,-9.6 8,-17.6 16.8,-17.6 h 101.6 c 9.6,0 16.8,8 16.8,16.8 v 30.4 z"
       id="path19" /><path
       style="fill:#d63205;stroke-width:19.8396"
       d="m 145.989,280 v 31.2 c 0,9.6 -8,16.8 -16.8,16.8 h -102.4 c -8.8,0 -16.8,-8 -16.8,-16.8 V 280"
       id="path20" /><path
       style="fill:#c11f05;stroke-width:19.8396"
       d="m 145.989,311.2 c 0,9.6 -8,16.8 -16.8,16.8 h -102.4 c -8.8,0 -16.8,-8 -16.8,-16.8"
       id="path21" /><path
       style="fill:#e5420a;stroke-width:19.8396"
       d="m 321.989,311.2 c 0,9.6 -8,16.8 -16.8,16.8 h -110.4 c -8.8,0 -16.8,-8 -16.8,-16.8 v -29.6 c 0,-9.6 8,-16.8 16.8,-16.8 h 109.6 c 9.6,0 16.8,8 16.8,16.8 v 29.6 z"
       id="path22" /><path
       style="fill:#d63205;stroke-width:19.8396"
       d="m 321.989,288 v 24.8 c 0,9.6 -7.2,15.2 -16.8,15.2 h -110.4 c -9.6,0 -16.8,-5.6 -16.8,-15.2 V 288"
       id="path23" /><path
       style="fill:#c11f05;stroke-width:19.8396"
       d="m 321.989,311.2 c 0,12 -7.2,16.8 -16.8,16.8 h -110.4 c -9.6,0 -16.8,-5.6 -16.8,-16.8"
       id="path24" /><path
       style="fill:#e5420a;stroke-width:19.8396"
       d="m 153.989,479.2 c 0,9.6 -8,16.8 -16.8,16.8 h -110.4 c -8.8,0 -16.8,-8 -16.8,-16.8 v -29.6 c 0,-9.6 8,-17.6 16.8,-17.6 h 109.6 c 9.6,0 16.8,8 16.8,16.8 v 30.4 z"
       id="path25" /><path
       style="fill:#d63205;stroke-width:19.8396"
       d="m 153.989,448 v 31.2 c 0,9.6 -8,16.8 -16.8,16.8 h -106.4 c -8.8,0 -20.8,-11.2 -20.8,-20.8 V 448"
       id="path26" /><path
       style="fill:#c11f05;stroke-width:19.8396"
       d="m 153.989,479.2 c 0,9.6 -5.6,16.8 -15.2,16.8 h -112 c -8.8,0 -16.8,-8 -16.8,-16.8"
       id="path27" /><path
       style="fill:#e5420a;stroke-width:19.8396"
       d="m 321.989,479.2 c 0,9.6 -8,16.8 -16.8,16.8 h -110.4 c -8.8,0 -16.8,-8 -16.8,-16.8 v -29.6 c 0,-9.6 8,-16.8 16.8,-16.8 h 109.6 c 9.6,0 16.8,8 16.8,16.8 v 29.6 z"
       id="path28" /><path
       style="fill:#d63205;stroke-width:19.8396"
       d="m 321.989,448 v 27.2 c 0,9.6 -7.2,20.8 -16.8,20.8 h -110.4 c -9.6,0 -16.8,-11.2 -16.8,-20.8 V 448"
       id="path29" /><path
       style="fill:#c11f05;stroke-width:19.8396"
       d="m 321.989,479.2 c 0,9.6 -7.2,16.8 -16.8,16.8 h -110.4 c -9.6,0 -16.8,-8 -16.8,-16.8"
       id="path30" /><path
       style="fill:#e5420a;stroke-width:19.8396"
       d="m 489.989,479.2 c 0,9.6 -8,16.8 -16.8,16.8 h -110.4 c -8.8,0 -16.8,-8 -16.8,-16.8 v -29.6 c 0,-9.6 8,-16.8 16.8,-16.8 h 109.6 c 9.6,0 16.8,8 16.8,16.8 v 29.6 z"
       id="path31" /><path
       style="fill:#d63205;stroke-width:19.8396"
       d="m 489.989,448 v 27.2 c 0,9.6 -8,20.8 -16.8,20.8 h -107.2 c -9.6,0 -20,-11.2 -20,-20.8 V 448"
       id="path32" /><path
       style="fill:#c11f05;stroke-width:19.8396"
       d="m 489.989,479.2 c 0,9.6 -8,16.8 -16.8,16.8 h -110.4 c -8.8,0 -16.8,-8 -16.8,-16.8"
       id="path33" /><path
       style="fill:#e5420a;stroke-width:19.8396"
       d="m 233.989,393.6 c 0,9.6 -4.8,14.4 -14.4,14.4 h -112.8 c -9.6,0 -16.8,-4.8 -16.8,-14.4 v -28.8 c 0,-9.6 5.6,-13.6 15.2,-13.6 h 114.4 c 9.6,0 14.4,4 14.4,13.6 z"
       id="path34" /><path
       style="fill:#d63205;stroke-width:19.8396"
       d="m 233.989,368 v 25.6 c 0,9.6 -4.8,14.4 -14.4,14.4 h -112.8 c -9.6,0 -16.8,-4.8 -16.8,-14.4 V 368"
       id="path35" /><path
       style="fill:#c11f05;stroke-width:19.8396"
       d="m 233.989,392 c 0,12 -4.8,16 -14.4,16 h -112.8 c -9.6,0 -16.8,-4.8 -16.8,-16"
       id="path36" /><path
       style="fill:#e5420a;stroke-width:19.8396"
       d="m 409.989,399.2 c 0,9.6 -8,16.8 -16.8,16.8 h -110.4 c -8.8,0 -16.8,-8 -16.8,-16.8 v -29.6 c 0,-9.6 8,-16.8 16.8,-16.8 h 109.6 c 9.6,0 16.8,8 16.8,16.8 v 29.6 z"
       id="path37" /><path
       style="fill:#d63205;stroke-width:19.8396"
       d="m 409.989,368 v 31.2 c 0,9.6 -9.6,8.8 -19.2,8.8 h -110.4 c -9.6,0 -14.4,0 -14.4,-8.8 V 368"
       id="path38" /><path
       style="fill:#c11f05;stroke-width:19.8396"
       d="m 409.989,399.2 c 0,9.6 -8,16.8 -16.8,16.8 h -110.4 c -8.8,0 -16.8,-7.2 -16.8,-16"
       id="path39" /><circle
       style="fill:#ffc200;stroke-width:19.8396"
       cx="353.189"
       cy="239.2"
       r="9.6000004"
       id="circle39" /><g
       id="g42"
       style="stroke-width:19.8396">
	<circle
   style="fill:#f79406;stroke-width:19.8396"
   cx="390.789"
   cy="149.60001"
   r="12"
   id="circle40" />
	<circle
   style="fill:#f79406;stroke-width:19.8396"
   cx="416.38901"
   cy="94.400002"
   r="3.2"
   id="circle41" />
	<circle
   style="fill:#f79406;stroke-width:19.8396"
   cx="378.789"
   cy="28.799999"
   r="3.2"
   id="circle42" />
</g><g
       id="g45"
       style="stroke-width:19.8396">
	<circle
   style="fill:#ffc200;stroke-width:19.8396"
   cx="253.189"
   cy="73.599998"
   r="13.6"
   id="circle43" />
	<circle
   style="fill:#ffc200;stroke-width:19.8396"
   cx="422.789"
   cy="301.60001"
   r="12.8"
   id="circle44" />
	<circle
   style="fill:#ffc200;stroke-width:19.8396"
   cx="365.98901"
   cy="312.79999"
   r="14.4"
   id="circle45" />
</g></g></svg>
