<?xml version="1.0" encoding="UTF-8" standalone="no"?>
<!-- Created with Inkscape (http://www.inkscape.org/) -->

<svg
   version="1.1"
   id="svg1"
   width="102.4"
   height="58.880001"
   viewBox="0 0 102.4 58.880001"
   xml:space="preserve"
   xmlns:xlink="http://www.w3.org/1999/xlink"
   xmlns="http://www.w3.org/2000/svg"
   xmlns:svg="http://www.w3.org/2000/svg"><defs
     id="defs1"><linearGradient
       id="linearGradient7"><stop
         style="stop-color:#3056ac;stop-opacity:0;"
         offset="0"
         id="stop40" /><stop
         style="stop-color:#93bcff;stop-opacity:1;"
         offset="0.43284425"
         id="stop41" /></linearGradient><linearGradient
       id="linearGradient1"><stop
         style="stop-color:#326ddb;stop-opacity:1;"
         offset="0"
         id="stop1" /><stop
         style="stop-color:#001063;stop-opacity:1;"
         offset="1"
         id="stop2" /></linearGradient><style
       type="text/css"
       id="style872" /><style
       type="text/css"
       id="style882" /><style
       type="text/css"
       id="style884" /><style
       type="text/css"
       id="style886" /><style
       type="text/css"
       id="style888" /><style
       type="text/css"
       id="style890" /><style
       type="text/css"
       id="style892" /><style
       type="text/css"
       id="style894" /><linearGradient
       xlink:href="#linearGradient1"
       id="linearGradient2"
       x1="1.1188443"
       y1="18.794922"
       x2="101.28114"
       y2="40.085075"
       gradientUnits="userSpaceOnUse" /><filter
       id="drive-harddisk-linux-256px-a"
       width="1.1304348"
       height="1.1296296"
       x="-0.065217391"
       y="-0.055555556"
       filterUnits="objectBoundingBox"><feOffset
         dy="4"
         in="SourceAlpha"
         result="shadowOffsetOuter1"
         id="feOffset1-7" /><feGaussianBlur
         in="shadowOffsetOuter1"
         result="shadowBlurOuter1"
         stdDeviation="5"
         id="feGaussianBlur1-9" /><feComposite
         in="shadowBlurOuter1"
         in2="SourceAlpha"
         operator="out"
         result="shadowBlurOuter1"
         id="feComposite1" /><feColorMatrix
         in="shadowBlurOuter1"
         result="shadowMatrixOuter1"
         values="0 0 0 0 0   0 0 0 0 0   0 0 0 0 0  0 0 0 0.2 0"
         id="feColorMatrix1-2" /><feMerge
         id="feMerge2-0"><feMergeNode
           in="shadowMatrixOuter1"
           id="feMergeNode1-2" /><feMergeNode
           in="SourceGraphic"
           id="feMergeNode2-3" /></feMerge></filter><linearGradient
       id="drive-harddisk-linux-256px-b"
       x1="195.19705"
       x2="-5.0479531"
       y1="109.79489"
       y2="109.79489"
       gradientTransform="scale(0.96666505,1.0344845)"
       gradientUnits="userSpaceOnUse"><stop
         offset="0%"
         stop-color="#0067BC"
         id="stop2-7" /><stop
         offset="4.571%"
         stop-color="#30EA7F"
         id="stop3-5" /><stop
         offset="9.931%"
         stop-color="#00D887"
         id="stop4-9" /><stop
         offset="88.945%"
         stop-color="#00B160"
         id="stop5-2" /><stop
         offset="93.793%"
         stop-color="#00C165"
         id="stop6-2" /><stop
         offset="100%"
         stop-color="#008CBD"
         id="stop7-8" /></linearGradient><linearGradient
       id="drive-harddisk-linux-256px-c"
       x1="103.30537"
       x2="4.335333e-09"
       y1="329.02655"
       y2="329.02655"
       gradientTransform="scale(1.7811271,0.56144225)"
       gradientUnits="userSpaceOnUse"><stop
         offset="0%"
         stop-color="#FFF"
         stop-opacity=".5"
         id="stop8-9" /><stop
         offset="9.936%"
         stop-color="#FFF"
         stop-opacity=".9"
         id="stop9-7" /><stop
         offset="52.356%"
         stop-color="#FFF"
         stop-opacity=".7"
         id="stop10-3" /><stop
         offset="87.648%"
         stop-color="#FFF"
         stop-opacity=".9"
         id="stop11-6" /><stop
         offset="100%"
         stop-color="#FFF"
         stop-opacity=".5"
         id="stop12-1" /></linearGradient><path
       id="drive-harddisk-linux-256px-d"
       d="M 0,172.00091 C 0,160.95471 8.9524604,152 19.997573,152 H 164.00243 C 175.04678,152 184,160.95124 184,172.00091 v 17.99818 C 184,201.04529 175.04754,210 164.00243,210 H 19.997573 C 8.9532183,210 1.1207911e-8,201.04876 0,189.99909 Z" /><filter
       id="drive-harddisk-linux-256px-e"
       width="1"
       height="1"
       x="0"
       y="0"
       filterUnits="objectBoundingBox"><feMorphology
         in="SourceAlpha"
         radius="2"
         result="shadowSpreadInner1"
         id="feMorphology12" /><feOffset
         in="shadowSpreadInner1"
         result="shadowOffsetInner1"
         id="feOffset12" /><feComposite
         in="shadowOffsetInner1"
         in2="SourceAlpha"
         k2="-1"
         k3="1"
         operator="arithmetic"
         result="shadowInnerInner1"
         id="feComposite12"
         k1="0"
         k4="0" /><feColorMatrix
         in="shadowInnerInner1"
         values="0 0 0 0 1   0 0 0 0 1   0 0 0 0 1  0 0 0 0.5 0"
         id="feColorMatrix12" /></filter><radialGradient
       id="drive-harddisk-linux-256px-f"
       cx="41.384449"
       cy="393.86649"
       r="67.477608"
       fx="41.384449"
       fy="393.86649"
       gradientTransform="scale(2.144761,0.46625241)"
       gradientUnits="userSpaceOnUse"><stop
         offset="0%"
         stop-color="#7CFFFE"
         id="stop13-2" /><stop
         offset="100%"
         stop-color="#D6CDE6"
         id="stop14-9" /></radialGradient><path
       id="drive-harddisk-linux-256px-g"
       d="M 0,196 C 0,184.9543 8.9524601,176 19.997572,176 H 164.00242 c 11.04436,0 19.99757,8.95188 19.99757,20 v 0 c 0,11.04569 -8.95246,20 -19.99757,20 H 19.997572 C 8.953218,216 0,207.04812 0,196 Z" /><filter
       id="drive-harddisk-linux-256px-h"
       width="1"
       height="1"
       x="0"
       y="0"
       filterUnits="objectBoundingBox"><feMorphology
         in="SourceAlpha"
         radius="2"
         result="shadowSpreadInner1"
         id="feMorphology14" /><feOffset
         in="shadowSpreadInner1"
         result="shadowOffsetInner1"
         id="feOffset14" /><feComposite
         in="shadowOffsetInner1"
         in2="SourceAlpha"
         k2="-1"
         k3="1"
         operator="arithmetic"
         result="shadowInnerInner1"
         id="feComposite14"
         k1="0"
         k4="0" /><feColorMatrix
         in="shadowInnerInner1"
         values="0 0 0 0 0   0 0 0 0 0.239215686   0 0 0 0 0.611764706  0 0 0 0.2 0"
         id="feColorMatrix14" /></filter><linearGradient
       id="drive-harddisk-linux-256px-k"
       x1="85.629219"
       x2="85.629219"
       y1="311.76273"
       y2="338.29572"
       gradientTransform="scale(1.6583124,0.60302269)"
       gradientUnits="userSpaceOnUse"><stop
         offset="0%"
         stop-color="#0174FF"
         id="stop15-3" /><stop
         offset="50.85%"
         stop-color="#01C2FF"
         id="stop16-1" /><stop
         offset="100%"
         stop-color="#0056FF"
         id="stop17-9" /></linearGradient><path
       id="drive-harddisk-linux-256px-j"
       d="m 122,188 c 1.10457,0 2,0.89451 2,1.99406 v 12.01188 c 0,1.05123 -0.80886,1.91247 -1.84978,1.98859 L 122,204 c -1.10457,0 -2,-0.89451 -2,-1.99406 v -12.01188 c 0,-1.05123 0.80886,-1.91247 1.84978,-1.98859 z m 8,0 c 1.10457,0 2,0.89451 2,1.99406 v 12.01188 c 0,1.05123 -0.80886,1.91247 -1.84978,1.98859 L 130,204 c -1.10457,0 -2,-0.89451 -2,-1.99406 v -12.01188 c 0,-1.05123 0.80886,-1.91247 1.84978,-1.98859 z m 8,0 c 1.10457,0 2,0.89451 2,1.99406 v 12.01188 c 0,1.05123 -0.80886,1.91247 -1.84978,1.98859 L 138,204 c -1.10457,0 -2,-0.89451 -2,-1.99406 v -12.01188 c 0,-1.05123 0.80886,-1.91247 1.84978,-1.98859 z m 8,0 c 1.10457,0 2,0.89451 2,1.99406 v 12.01188 c 0,1.05123 -0.80886,1.91247 -1.84978,1.98859 L 146,204 c -1.10457,0 -2,-0.89451 -2,-1.99406 v -12.01188 c 0,-1.05123 0.80886,-1.91247 1.84978,-1.98859 z m 8,0 c 1.10457,0 2,0.89451 2,1.99406 v 12.01188 c 0,1.05123 -0.80886,1.91247 -1.84978,1.98859 L 154,204 c -1.10457,0 -2,-0.89451 -2,-1.99406 v -12.01188 c 0,-1.05123 0.80886,-1.91247 1.84978,-1.98859 z m 8,0 c 1.10457,0 2,0.89451 2,1.99406 v 12.01188 c 0,1.05123 -0.80886,1.91247 -1.84978,1.98859 L 162,204 c -1.10457,0 -2,-0.89451 -2,-1.99406 v -12.01188 c 0,-1.05123 0.80886,-1.91247 1.84978,-1.98859 z" /><filter
       id="drive-harddisk-linux-256px-i"
       width="1"
       height="1.125"
       x="0"
       y="0"
       filterUnits="objectBoundingBox"><feOffset
         dy="2"
         in="SourceAlpha"
         result="shadowOffsetOuter1"
         id="feOffset17" /><feColorMatrix
         in="shadowOffsetOuter1"
         values="0 0 0 0 1   0 0 0 0 1   0 0 0 0 1  0 0 0 0.3 0"
         id="feColorMatrix17" /></filter><path
       id="drive-harddisk-linux-256px-l"
       d="m 23,203 c 3.865993,0 7,-3.13401 7,-7 0,-3.86599 -3.134007,-7 -7,-7 -3.865993,0 -7,3.13401 -7,7 0,3.86599 3.134007,7 7,7 z" /><filter
       id="drive-harddisk-linux-256px-m"
       width="1.2857143"
       height="1.4285714"
       x="-0.28571429"
       y="-0.42857143"
       filterUnits="objectBoundingBox"><feOffset
         dx="-4"
         dy="-6"
         in="SourceAlpha"
         result="shadowOffsetInner1"
         id="feOffset18" /><feComposite
         in="shadowOffsetInner1"
         in2="SourceAlpha"
         k2="-1"
         k3="1"
         operator="arithmetic"
         result="shadowInnerInner1"
         id="feComposite18"
         k1="0"
         k4="0" /><feColorMatrix
         in="shadowInnerInner1"
         values="0 0 0 0 0.191847778   0 0 0 0 0.912414966   0 0 0 0 0.103665518  0 0 0 0.5 0"
         id="feColorMatrix18" /></filter><linearGradient
       xlink:href="#linearGradient7"
       id="linearGradient41"
       x1="41.111294"
       y1="36.878246"
       x2="53.656902"
       y2="36.878246"
       gradientUnits="userSpaceOnUse"
       gradientTransform="translate(5.1375398,-6.6813605)" /></defs><rect
     style="fill:url(#linearGradient2);fill-opacity:0.852379"
     id="rect1"
     width="102.4"
     height="58.880001"
     x="0"
     y="0" /><path
     d="m 34.062547,39.235283 c 0.251217,0 0.493367,0.03734 0.722182,0.106674 l -0.0176,-0.0048 v 0.231482 c -0.03627,0.368024 -0.344557,0.653377 -0.718982,0.653377 -0.02827,0 -0.05654,-0.0016 -0.08427,-0.0048 l 0.0032,5.34e-4 c -0.323221,0 -0.602706,-0.173879 -0.602706,-0.475232 0,-0.311487 0.25015,-0.5067 0.697646,-0.5067 z m 3.922395,-0.921128 c 0.421895,0.01173 0.759518,0.356824 0.759518,0.780852 0,0.01013 0,0.02027 -5.34e-4,0.02987 v -0.0016 h -1.518501 c 0.0016,-0.429362 0.334956,-0.780319 0.75685,-0.809654 h 0.0027 z m -3.811987,-0.286952 c -0.0037,0 -0.0085,0 -0.0128,0 -0.03254,0 -0.06454,0.0016 -0.09654,0.0043 l 0.0043,-5.34e-4 c -0.0208,-0.0011 -0.04534,-0.0016 -0.0704,-0.0016 -0.234683,0 -0.457631,0.05067 -0.658178,0.14241 l 0.01013,-0.0043 c -0.05654,0.02133 -0.09547,0.07467 -0.09547,0.137609 0,0.0037 0,0.0075 5.34e-4,0.0112 v -5.34e-4 c 0.0037,0.08427 0.072,0.150944 0.156277,0.152544 v 0 c 0.02347,-0.0016 0.0448,-0.0075 0.06454,-0.01653 l -0.0011,5.34e-4 c 0.147743,-0.06881 0.320554,-0.109341 0.502966,-0.109341 0.01867,0 0.0368,5.33e-4 0.05547,0.0011 h -0.0027 c 0.460297,0 0.713113,0.222415 0.713113,0.65231 v 0.0832 c -0.211214,-0.06347 -0.453897,-0.100273 -0.704579,-0.100273 -0.01067,0 -0.02134,0 -0.032,0 h 0.0016 c -0.594707,0 -1.012868,0.266685 -1.012868,0.773385 l -0.0021,-0.0027 c 0.02933,0.420295 0.377625,0.749383 0.80272,0.749383 0.032,0 0.06347,-0.0016 0.09441,-0.0053 l -0.0037,5.33e-4 c 0.0091,0 0.01973,5.34e-4 0.02987,5.34e-4 0.339756,0 0.64111,-0.161078 0.833123,-0.411228 l 0.0016,-0.0027 v 0.228816 c 0,5.33e-4 0,0.0016 0,0.0021 0,0.09067 0.07361,0.164811 0.164811,0.164811 0.0016,0 0.0032,0 0.0048,0 v 0 c 0.0011,0 0.0016,0 0.0027,0 0.09334,0 0.169078,-0.07574 0.169078,-0.169078 0,-0.0021 0,-0.0037 0,-0.0059 v 0 -1.321688 c 0.0011,-0.016 0.0016,-0.03414 0.0016,-0.0528 0,-0.249083 -0.09654,-0.476298 -0.254417,-0.644843 l 5.33e-4,5.34e-4 c -0.177612,-0.155211 -0.41016,-0.251217 -0.665644,-0.256551 h -0.0011 z m 3.828522,-0.0011 c -0.627776,0.0208 -1.129142,0.534969 -1.129142,1.165944 0,0.024 5.33e-4,0.04747 0.0021,0.07094 v -0.0032 c -0.0011,0.01867 -0.0016,0.04 -0.0016,0.06187 0,0.64911 0.525902,1.175545 1.174478,1.176612 v 0 l -0.0053,0.0085 c 0.01013,5.33e-4 0.0224,5.33e-4 0.03413,5.33e-4 0.333889,0 0.635776,-0.137609 0.85179,-0.359491 v 0 c 0.032,-0.02774 0.05227,-0.06827 0.05227,-0.113607 0,-0.08267 -0.06721,-0.149877 -0.149877,-0.149877 -0.0384,0 -0.07361,0.0144 -0.100273,0.0384 v 0 c -0.172812,0.171211 -0.410161,0.276818 -0.672579,0.276818 -0.0021,0 -0.0043,0 -0.0059,0 h 5.34e-4 c -5.34e-4,0 -0.0016,0 -0.0021,0 -0.448563,0 -0.812854,-0.35789 -0.824055,-0.803253 v -0.0011 H 38.929 c 0.09067,-5.33e-4 0.163744,-0.07414 0.163744,-0.164811 0,0 0,0 0,0 v 0 c 0.0021,-0.0272 0.0037,-0.05867 0.0037,-0.09067 0,-0.608574 -0.488033,-1.103007 -1.09394,-1.113141 h -0.0011 z m -6.776985,-0.0053 c -0.08267,0.0053 -0.149877,0.06507 -0.166412,0.143476 v 0.0011 l -0.60804,1.75105 -0.601107,-1.746249 c -0.0192,-0.08427 -0.09334,-0.146677 -0.182412,-0.146677 0,0 0,0 -5.33e-4,0 v 0 c -0.0011,0 -0.0016,0 -0.0027,0 -0.09601,0 -0.174412,0.07627 -0.177079,0.171745 v 5.33e-4 c 0.0027,0.0352 0.0112,0.06774 0.02347,0.09814 l -0.0011,-0.0021 0.726448,2.024135 0.01333,-0.0048 c 0.02294,0.09067 0.102407,0.157877 0.198414,0.161078 h 5.33e-4 c 0.09654,-5.34e-4 0.176545,-0.0688 0.195213,-0.160011 v -0.0011 l 0.602174,-1.721715 0.597373,1.721715 c 0.01867,0.09227 0.09867,0.161078 0.195213,0.161078 h 0.01227 c 0.09441,-0.0053 0.172278,-0.07147 0.195213,-0.160011 l 5.34e-4,-0.0016 0.731249,-2.024668 c 0.0112,-0.02827 0.0192,-0.0608 0.02187,-0.09494 v -0.0011 c -0.0032,-0.09281 -0.07894,-0.166944 -0.171743,-0.166944 -0.0016,0 -0.0032,0 -0.0048,0 v 0 c -5.34e-4,0 -5.34e-4,0 -0.0011,0 -0.08374,0 -0.154144,0.0592 -0.170678,0.138142 v 0.0011 l -0.611775,1.753184 -0.602706,-1.750517 c -0.02134,-0.08374 -0.09547,-0.144543 -0.184546,-0.144543 -5.33e-4,0 -5.33e-4,0 -0.0011,0 h -0.02454 z m 4.488832,-0.0053 c -0.09814,0.0016 -0.177078,0.08161 -0.177078,0.179745 0,0.0011 0,0.0021 0,0.0027 v 0 h 0.0016 v 2.094006 c -0.0011,0.0075 -0.0016,0.016 -0.0016,0.02454 0,0.09921 0.08054,0.179745 0.179745,0.179745 0.09921,0 0.179745,-0.08054 0.179745,-0.179745 0,-0.0085 -5.33e-4,-0.01707 -0.0016,-0.0256 v 0.0011 -0.814454 c -0.0053,-0.03787 -0.008,-0.08161 -0.008,-0.125875 0,-0.496567 0.370158,-0.906194 0.849656,-0.968598 l 0.0048,-5.34e-4 c 0.08961,-0.0096 0.158944,-0.0848 0.158944,-0.176545 0,-0.0021 0,-0.0043 0,-0.0064 v 5.33e-4 c 0,-0.0021 0,-0.0048 0,-0.0075 0,-0.09494 -0.07681,-0.171745 -0.171745,-0.171745 -0.0021,0 -0.0037,0 -0.0059,0 h 5.33e-4 c -0.371225,0.02667 -0.683245,0.257617 -0.825122,0.580306 l -0.0027,0.0064 v -0.409168 c 0,-0.0016 0,-0.0037 0,-0.0053 0,-0.09814 -0.07947,-0.177078 -0.177079,-0.177078 -0.0011,0 -0.0027,0 -0.0037,0 v 0 z m -12.284019,-0.04 c -0.048,0.0016 -0.09281,0.01333 -0.133342,0.03307 l 0.0021,-0.0011 c -0.119474,0.05174 -0.201613,0.168545 -0.201613,0.305087 0,0.05387 0.0128,0.105074 0.03574,0.15041 l -0.0011,-0.0021 0.758451,1.64971 c 0.119474,0.25335 0.25335,0.394693 0.480565,0.394693 0.227748,0 0.361091,-0.146677 0.480032,-0.394693 l 0.668311,-1.457164 c 0.0144,-0.03627 0.04907,-0.06134 0.08961,-0.06134 0.0021,0 0.0043,0 0.0069,0 h -5.33e-4 c 0.05814,0.0011 0.10454,0.04854 0.10454,0.106674 0,0 0,0 0,0 v 0 1.411828 c -0.0011,0.0091 -0.0016,0.01973 -0.0016,0.03093 0,0.196813 0.159477,0.356824 0.356824,0.356824 0.197346,0 0.356823,-0.159478 0.356823,-0.356824 0,-0.01067 -5.33e-4,-0.02134 -0.0016,-0.032 v 0.0016 -1.153144 c 0,-0.0043 -5.33e-4,-0.0096 -5.33e-4,-0.01493 0,-0.195213 0.15841,-0.354157 0.354157,-0.354157 0.0085,0 0.01653,5.33e-4 0.02454,0.0011 h -0.0011 c 0.0043,0 0.0096,-5.34e-4 0.0144,-5.34e-4 0.191479,0 0.34669,0.155211 0.34669,0.34669 0,0.0075 0,0.01494 -5.34e-4,0.02187 v -0.0011 1.153143 c -0.0016,0.01227 -0.0027,0.02667 -0.0027,0.04107 0,0.195213 0.15841,0.354157 0.354156,0.354157 5.34e-4,0 0.0011,0 0.0016,0 v 0 c 0.197879,-5.34e-4 0.358423,-0.161078 0.358423,-0.359491 0,-0.01227 -5.33e-4,-0.02454 -0.0021,-0.0368 v 0.0016 -1.153144 c 0,-0.0043 -5.33e-4,-0.0096 -5.33e-4,-0.01493 0,-0.195213 0.15841,-0.354157 0.354157,-0.354157 0.008,0 0.01547,0 0.02347,5.33e-4 h -0.0011 c 0.0048,0 0.01013,-5.33e-4 0.016,-5.33e-4 0.19148,0 0.34669,0.15521 0.34669,0.34669 0,0.0075 0,0.01493 -5.33e-4,0.02187 v -0.0011 1.153143 c -0.0011,0.01174 -0.0021,0.02507 -0.0021,0.0384 0,0.196813 0.159477,0.35629 0.35629,0.35629 0.196814,0 0.356291,-0.159477 0.356291,-0.35629 0,-0.01333 -5.33e-4,-0.02613 -0.0021,-0.03947 v 0.0016 -1.312621 c -0.0011,-0.453364 -0.369091,-0.820321 -0.822454,-0.820321 -0.01174,0 -0.02294,0 -0.03414,5.33e-4 h 0.0016 c -0.29762,0.0053 -0.565371,0.128009 -0.759517,0.323755 v 0 c -0.155211,-0.198413 -0.39416,-0.324822 -0.662978,-0.324822 -0.02347,0 -0.04694,0.0011 -0.06987,0.0027 h 0.0032 c -0.278952,0.02614 -0.526968,0.14401 -0.716314,0.322688 l 5.33e-4,-5.33e-4 c -0.152543,-0.189879 -0.381359,-0.312554 -0.638976,-0.322155 h -0.0016 c -0.0096,-5.33e-4 -0.02027,-5.33e-4 -0.03147,-5.33e-4 -0.340289,0 -0.629908,0.216548 -0.738182,0.518968 l -0.0016,0.0053 -0.485899,1.143543 -0.621909,-1.468364 0.0075,-0.0027 c -0.05334,-0.119475 -0.171212,-0.201614 -0.308288,-0.201614 -0.0048,0 -0.0091,0 -0.01387,5.34e-4 h 5.33e-4 z"
     id="path1-6"
     style="fill:#ffffff;fill-opacity:1;stroke-width:25" /><g
     id="g5"
     transform="translate(0.75996108,0.8624369)"><path
       stroke="#0097d3"
       stroke-width="1.007"
       stroke-linejoin="round"
       stroke-linecap="round"
       fill="none"
       d="m 26.048996,25.271878 v 4.18405 q 0.329187,1.069701 1.423985,1.353957 h 8.501517 q 1.094798,-0.284256 1.423986,-1.353957 V 20.83848 q -0.329188,-1.0697 -1.39406,-1.396346 h -8.561369 q -1.064872,0.326646 -1.394059,1.396346 v 2.191764 m 2.234485,0 v -0.501188 q 0.199507,-0.648304 0.845413,-0.845288 h 5.187197 q 0.645906,0.196984 0.845414,0.845288 v 5.221336 q -0.199508,0.648303 -0.862871,0.820353 h 0.05985 m -5.212136,0 h -0.05736 m -0.805507,-3.298867 v 2.478514 q 0.199507,0.648303 0.86287,0.820353 h 5.152283 m -6.825653,2.23914 h -0.09726 m 8.696037,0 h -0.09726"
       id="path6" /><path
       fill="#f38b00"
       stroke="none"
       d="m 30.675078,25.271878 q 0.645905,0.196985 0.845413,0.845288 v 2.416177 h 1.912779 v -0.0025 h 0.294274 v -0.005 h 0.02743 V 24.42659 q -0.329185,-1.0697 -1.394057,-1.396346 h -8.56137 q -1.065095,0.325399 -1.394059,1.396346 v 8.617449 q 0.329188,1.0697 1.423986,1.353956 h 8.501517 q 1.094798,-0.284256 1.423985,-1.353956 v -2.246621 h -2.234485 v 0.541084 q -0.199508,0.648303 -0.86287,0.820353 h 0.05736 -0.05736 -5.152284 -0.05985 0.05985 q -0.663362,-0.17205 -0.86287,-0.820353 v -5.221336 q 0.199508,-0.648303 0.845413,-0.845288 z"
       id="path1"
       style="stroke-width:1.007" /><path
       stroke="#f28c00"
       stroke-width="1.007"
       stroke-linejoin="round"
       stroke-linecap="round"
       fill="none"
       d="m 25.505337,32.158855 c -0.442241,-0.1147 -0.729865,-0.388151 -0.86287,-0.820353 v -5.221336 c 0.133005,-0.432202 0.41481,-0.713965 0.845413,-0.845288 h 5.187198 c 0.430603,0.131323 0.712408,0.413086 0.845413,0.845288 v 2.416177 m 2.234485,-0.0075 V 24.42659 c -0.219458,-0.713134 -0.684145,-1.178582 -1.394059,-1.396346 h -8.56137 c -0.710063,0.216933 -1.17475,0.682381 -1.394059,1.396346 v 8.617449 c 0.219459,0.713133 0.69412,1.164452 1.423986,1.353956 h 8.501517 c 0.729865,-0.189504 1.204527,-0.640823 1.423985,-1.353956 v -2.246621 m -2.234485,0 v 0.541084 c -0.133005,0.432202 -0.420629,0.705653 -0.86287,0.820353 h 0.05736 m -5.269494,0 h 0.05985 5.152284 m -6.925407,2.23914 h 0.09726 m 8.501517,0 h 0.09726"
       id="path2" /><path
       fill="#0097d3"
       stroke="none"
       d="m 37.398484,20.83848 c -0.219459,-0.713134 -0.684145,-1.178582 -1.39406,-1.396346 h -8.561369 c -0.709915,0.217764 -1.174601,0.683212 -1.394059,1.396346 v 1.695048 l 2.234485,-0.0045 v 0 c 0.133005,-0.432202 0.414809,-0.713965 0.845413,-0.845288 h 5.187197 c 0.430604,0.131323 0.712409,0.413086 0.845414,0.845288 v 5.221334 c -0.133005,0.432202 -0.420629,0.705653 -0.862871,0.820353 h 0.05985 -0.05985 -5.152283 -0.05736 0.05736 c -0.442242,-0.1147 -0.729865,-0.388151 -0.86287,-0.820353 v -1.972183 l -2.234485,-0.0032 v 3.680924 c 0.219458,0.713134 0.69412,1.164453 1.423985,1.353957 h 8.501517 c 0.729866,-0.189504 1.204527,-0.640823 1.423986,-1.353957 z"
       id="path4"
       style="display:inline;stroke-width:1.007" /><path
       stroke="#0077a9"
       stroke-width="2.12414"
       stroke-linejoin="round"
       stroke-linecap="round"
       fill="none"
       d="m 28.350812,26.196304 -2.362507,0.986189 v -0.975351 z"
       id="path11"
       style="stroke-width:0.57861" /><path
       fill="#0077a9"
       stroke="none"
       d="m 22.946006,14.993874 v 1.795302 l 4.264475,-1.81525 z"
       id="path10"
       style="stroke-width:2.12414"
       transform="matrix(0.4787302,0,0,0.46946871,15.163992,19.426633)" /><g
       id="g2"
       transform="matrix(0.4787302,0,0,0.46946871,15.163992,19.426633)"
       style="stroke-width:1.05468" /><path
       stroke="#c96d00"
       stroke-width="2.01401"
       stroke-linejoin="round"
       stroke-linecap="round"
       fill="none"
       d="m 38.222188,32.896304 4.214598,1.890054 v -1.914989 z"
       id="path12"
       transform="matrix(0.49999997,0,0,0.49999997,12.37822,15.525634)" /><path
       fill="#c96d00"
       stroke="none"
       d="m 42.853732,34.347912 v -1.914989 l -4.214598,0.02493 z"
       id="path9"
       style="stroke-width:2.01401"
       transform="matrix(0.49999997,0,0,0.49999997,12.37822,15.525634)" /><g
       id="g3"
       transform="matrix(0.49999997,0,0,0.49999997,12.37822,15.525634)" /><g
       id="g4"
       transform="matrix(0.49999997,0,0,0.49999997,14.575993,18.969316)"><rect
         style="fill:#0097d3;fill-opacity:1;stroke-width:1"
         id="rect3"
         width="8"
         height="1.224962"
         x="31.92"
         y="23.455999" /><rect
         style="fill:#0097d3;fill-opacity:1;stroke-width:1"
         id="rect3-8"
         width="8"
         height="1.224962"
         x="31.92"
         y="18.211" /></g></g><g
     fill="none"
     fill-rule="evenodd"
     id="g26"
     transform="matrix(0.07692308,0,0,0.07692308,65.776084,20.209517)"><g
       filter="url(#drive-harddisk-linux-256px-a)"
       transform="translate(36,20)"
       id="g25"><path
         fill="url(#drive-harddisk-linux-256px-b)"
         d="M 0,31.992754 C 0,14.323644 14.323275,0 31.997792,0 H 152.0022 C 169.6741,0 184,14.319829 184,31.992754 V 196.9091 H 0 Z"
         id="path18"
         style="fill:url(#drive-harddisk-linux-256px-b)" /><use
         fill="url(#drive-harddisk-linux-256px-c)"
         xlink:href="#drive-harddisk-linux-256px-d"
         id="use18"
         style="fill:url(#drive-harddisk-linux-256px-c)" /><use
         fill="#000000"
         filter="url(#drive-harddisk-linux-256px-e)"
         xlink:href="#drive-harddisk-linux-256px-d"
         id="use19" /><use
         fill="url(#drive-harddisk-linux-256px-f)"
         xlink:href="#drive-harddisk-linux-256px-g"
         id="use20"
         style="fill:url(#drive-harddisk-linux-256px-f)" /><use
         fill="#000000"
         filter="url(#drive-harddisk-linux-256px-h)"
         xlink:href="#drive-harddisk-linux-256px-g"
         id="use21" /><use
         fill="#000000"
         filter="url(#drive-harddisk-linux-256px-i)"
         xlink:href="#drive-harddisk-linux-256px-j"
         id="use22" /><use
         fill="url(#drive-harddisk-linux-256px-k)"
         xlink:href="#drive-harddisk-linux-256px-j"
         id="use23"
         style="fill:url(#drive-harddisk-linux-256px-k)" /><use
         fill="#baff76"
         xlink:href="#drive-harddisk-linux-256px-l"
         id="use24" /><use
         fill="#000000"
         filter="url(#drive-harddisk-linux-256px-m)"
         xlink:href="#drive-harddisk-linux-256px-l"
         id="use25" /><path
         stroke="#54d800"
         stroke-linejoin="square"
         stroke-width="2"
         d="m 23,202 c 3.313708,0 6,-2.68629 6,-6 0,-3.31371 -2.686292,-6 -6,-6 -3.313709,0 -6,2.68629 -6,6 0,3.31371 2.686291,6 6,6 z"
         id="path25" /></g><path
       fill="#ffffff"
       d="m 153.53295,113.52206 c 0,-0.62942 -0.96368,-1.36373 -2.89108,-2.20296 0.14018,-0.52452 0.27159,-1.00531 0.39424,-1.44242 0.12265,-0.43709 0.21027,-0.89166 0.26283,-1.36373 0.0526,-0.47207 0.10512,-0.84797 0.15769,-1.1277 0.0526,-0.27975 0.0613,-0.67313 0.0263,-1.18017 -0.035,-0.50703 -0.0526,-0.84795 -0.0526,-1.02279 0,-0.17484 -0.0613,-0.55948 -0.18397,-1.15394 -0.12266,-0.59445 -0.19274,-0.95287 -0.21027,-1.07525 -0.0175,-0.12239 -0.10513,-0.55948 -0.26282,-1.31129 -0.1577,-0.7518 -0.25406,-1.21512 -0.28912,-1.38996 -0.35043,-1.678453 -1.17393,-3.479264 -2.47055,-5.402501 -1.29661,-1.923225 -2.55815,-3.234497 -3.78468,-3.933852 0.84105,0.699355 1.83978,2.1505 2.99621,4.353472 3.04879,5.664781 3.99494,10.525221 2.83851,14.581491 -0.38548,1.39871 -1.26155,2.13303 -2.62825,2.20296 -1.08635,0.13987 -1.76093,-0.18358 -2.02375,-0.97035 -0.26283,-0.78678 -0.403,-2.24665 -0.42052,-4.37969 -0.0175,-2.13304 -0.21901,-4.00379 -0.6045,-5.61231 -0.31539,-1.363745 -0.65706,-2.570109 -1.02501,-3.619141 -0.36796,-1.049032 -0.70963,-1.844541 -1.02502,-2.38654 -0.3154,-0.541999 -0.58698,-0.970348 -0.81476,-1.28506 -0.22779,-0.314712 -0.45557,-0.576964 -0.68334,-0.78678 -0.22778,-0.209804 -0.3592,-0.332183 -0.39424,-0.36716 -0.49061,-2.167994 -1.03378,-3.968817 -1.62952,-5.402491 -0.59573,-1.433675 -1.11262,-2.412764 -1.55066,-2.93728 -0.43805,-0.524516 -0.8498,-1.10148 -1.23528,-1.730892 -0.38547,-0.629424 -0.6483,-1.328767 -0.78847,-2.098064 -0.14017,-0.73432 -0.0351,-1.669691 0.31538,-2.806148 0.35044,-1.136457 0.42929,-2.001897 0.23655,-2.596344 -0.19275,-0.594458 -0.97244,-1.031549 -2.33914,-1.311284 -0.52565,-0.104908 -1.30536,-0.419608 -2.33914,-0.944136 -1.03379,-0.524515 -1.6558,-0.80425 -1.86606,-0.839216 -0.28035,-0.03496 -0.47309,-0.489539 -0.57821,-1.363743 -0.10514,-0.874194 0.035,-1.765858 0.42051,-2.675016 0.38548,-0.909159 1.01625,-1.381227 1.89234,-1.416192 1.29661,-0.104896 2.19021,0.419608 2.68082,1.573547 0.49061,1.153928 0.56069,2.167983 0.21026,3.042176 -0.38548,0.66439 -0.42052,1.127704 -0.10513,1.389968 0.31538,0.262252 0.84104,0.270994 1.57694,0.02622 0.45557,-0.139873 0.68335,-0.769285 0.68335,-1.888248 v -1.940707 c -0.17521,-1.049032 -0.41175,-1.923214 -0.70963,-2.622568 -0.29787,-0.699355 -0.66581,-1.232612 -1.10386,-1.599772 -0.43805,-0.36716 -0.84979,-0.629412 -1.23528,-0.786768 -0.38548,-0.157356 -0.85855,-0.288488 -1.41925,-0.393384 -3.74965,0.279735 -5.30907,2.622544 -4.67829,7.028488 0,0.524515 -0.0175,0.786767 -0.0526,0.786767 -0.31539,-0.314711 -0.83227,-0.49828 -1.55067,-0.55074 -0.71839,-0.05245 -1.29659,-0.04371 -1.73464,0.02623 -0.43805,0.06994 -0.70963,-0.01748 -0.81475,-0.262252 0.035,-1.993168 -0.24531,-3.566693 -0.84105,-4.720632 -0.59573,-1.153928 -1.3842,-1.748375 -2.36542,-1.78334 -0.94617,-0.03498 -1.67332,0.445832 -2.18145,1.442404 -0.50813,0.996584 -0.79723,2.036862 -0.86731,3.12086 -0.0351,0.524527 0.0263,1.17141 0.18397,1.940708 0.15769,0.769296 0.38548,1.424933 0.68334,1.966931 0.29787,0.541999 0.56945,0.778027 0.81476,0.708096 0.35044,-0.104908 0.63078,-0.349677 0.84104,-0.73432 0.14017,-0.314712 0.0175,-0.454585 -0.36796,-0.41962 -0.2453,0 -0.51688,-0.25351 -0.81475,-0.760544 -0.29787,-0.507033 -0.46433,-1.092738 -0.49937,-1.757116 -0.035,-0.769297 0.12265,-1.416191 0.47309,-1.940707 0.35043,-0.524516 0.94616,-0.769286 1.7872,-0.73432 0.59575,0 1.06882,0.36716 1.41926,1.10148 0.35043,0.73432 0.51689,1.41618 0.49937,2.045603 -0.0175,0.629424 -0.0438,1.014067 -0.0789,1.153929 -0.77095,0.524527 -1.31412,1.031549 -1.6295,1.521099 -0.28035,0.419608 -0.76219,0.830475 -1.44554,1.2326 -0.68335,0.402137 -1.04254,0.620683 -1.07758,0.655648 -0.45557,0.489551 -0.72715,0.961607 -0.81477,1.416192 -0.0876,0.454574 0.0438,0.769285 0.39425,0.944124 0.4906,0.279747 0.92864,0.620671 1.31412,1.022796 0.38548,0.402137 0.66582,0.73432 0.84104,0.996584 0.17521,0.262252 0.49937,0.489539 0.97246,0.681872 0.47308,0.192321 1.09509,0.305959 1.86605,0.340924 1.64704,0.06994 3.43424,-0.192309 5.36163,-0.786768 0.0701,-0.03496 0.47308,-0.157356 1.20898,-0.36716 0.73593,-0.209804 1.34042,-0.393384 1.8135,-0.55074 0.47309,-0.157356 0.98997,-0.384643 1.55067,-0.681872 0.56069,-0.297217 0.92865,-0.603188 1.10387,-0.9179 0.31539,-0.489539 0.66581,-0.629412 1.05129,-0.419608 0.17521,0.104908 0.28911,0.253511 0.34167,0.445844 0.0526,0.192321 0,0.402125 -0.1577,0.629412 -0.15768,0.227287 -0.44679,0.393384 -0.86731,0.498292 -0.70087,0.209804 -1.69084,0.585705 -2.96992,1.127704 -1.27909,0.541999 -2.07632,0.882935 -2.3917,1.022796 -1.54192,0.664389 -2.76842,1.066515 -3.67955,1.206388 -0.8761,0.174838 -2.26029,0.139873 -4.15264,-0.104908 -0.35043,-0.06993 -0.50813,-0.03496 -0.47309,0.104908 0.035,0.139873 0.33291,0.472056 0.89361,0.996572 0.87608,0.804262 2.05003,1.188905 3.52185,1.15394 0.59574,-0.03497 1.22652,-0.157356 1.89235,-0.36716 0.66582,-0.209816 1.2966,-0.454586 1.89233,-0.73432 0.59573,-0.279747 1.18271,-0.585706 1.76093,-0.9179 0.57821,-0.332195 1.10385,-0.629424 1.57695,-0.891676 0.47308,-0.262264 0.90236,-0.472068 1.28784,-0.629424 0.38547,-0.157344 0.6921,-0.201063 0.91988,-0.13112 0.22778,0.06993 0.37672,0.262252 0.44681,0.576964 0,0.06993 -0.0175,0.148615 -0.0526,0.236028 -0.035,0.08742 -0.10512,0.174839 -0.21026,0.262264 -0.10512,0.08741 -0.21026,0.166085 -0.31539,0.236028 -0.10513,0.06993 -0.25406,0.157356 -0.4468,0.262252 -0.19274,0.104908 -0.35043,0.18358 -0.47309,0.23604 -0.12264,0.05245 -0.29786,0.139861 -0.52564,0.262252 -0.22779,0.12239 -0.39425,0.201062 -0.49937,0.236028 -0.98122,0.489551 -2.16392,1.258836 -3.54813,2.307868 -1.38423,1.049031 -2.5494,1.800822 -3.49557,2.255408 -0.94618,0.454585 -1.80474,0.472068 -2.57569,0.05245 -0.73592,-0.384643 -1.83977,-1.66095 -3.31159,-3.828944 -0.77096,-1.084009 -1.209,-1.468652 -1.31413,-1.15394 -0.0351,0.104908 -0.0526,0.279746 -0.0526,0.524516 0,0.874193 -0.26282,1.862024 -0.78848,2.963504 -0.52565,1.101491 -1.04254,2.071828 -1.55067,2.911056 -0.50813,0.839227 -0.87607,1.853282 -1.10386,3.042187 -0.22778,1.188905 -0.0263,2.290374 0.6045,3.30444 -0.806,0.209804 -1.9011,1.783328 -3.28531,4.72062 -1.38422,2.937298 -2.21649,5.402488 -2.49684,7.395658 -0.0701,0.62941 -0.0964,1.83579 -0.0788,3.61914 0.0175,1.78336 -0.0789,2.8149 -0.28912,3.09463 -0.28034,0.83923 -0.78847,0.89168 -1.52438,0.15736 -1.1214,-1.084 -1.75216,-2.72746 -1.89233,-4.93044 -0.0701,-0.97909 0,-1.95817 0.21026,-2.93728 0.14017,-0.66439 0.12265,-0.97909 -0.0526,-0.94412 l -0.21027,0.26226 c -1.26156,2.27291 -1.08634,5.17519 0.52565,8.70694 0.17522,0.4196 0.61326,0.90915 1.31413,1.46864 0.70088,0.55948 1.12138,0.90916 1.26156,1.04903 0.70087,0.80425 2.52311,2.38653 5.46676,4.74685 2.94365,2.36032 4.57315,3.69783 4.88855,4.01253 0.56069,0.52452 0.86731,1.1889 0.91988,1.99315 0.0526,0.80427 -0.19274,1.55606 -0.73591,2.25542 -0.54318,0.69936 -1.3404,1.10148 -2.3917,1.20638 0.28034,0.52451 0.78847,1.30254 1.52438,2.33409 0.73591,1.03155 1.22651,1.97567 1.47182,2.83238 0.2453,0.85671 0.36795,2.0893 0.36795,3.69782 1.612,-0.83923 1.73465,-2.44772 0.36796,-4.82553 -0.14018,-0.27974 -0.32416,-0.55948 -0.55194,-0.83922 -0.22777,-0.27975 -0.39423,-0.48955 -0.49937,-0.62942 -0.10512,-0.13987 -0.14017,-0.24477 -0.10512,-0.31471 0.10512,-0.17484 0.3329,-0.34093 0.68334,-0.49828 0.35043,-0.15736 0.70087,-0.11365 1.0513,0.13112 1.612,1.81833 4.52057,2.44774 8.72578,1.88825 4.66079,-0.52451 7.76209,-2.04559 9.304,-4.56327 0.80601,-1.32878 1.40173,-1.85328 1.78722,-1.57355 0.42051,0.20982 0.59573,1.11897 0.52565,2.72748 -0.035,0.87419 -0.43804,2.48269 -1.209,4.82553 -0.31539,0.80426 -0.42052,1.4599 -0.31539,1.96693 0.10513,0.50703 0.52565,0.77803 1.26156,0.813 0.10513,-0.66439 0.35919,-2.01063 0.76219,-4.03876 0.40301,-2.02813 0.63954,-3.60167 0.70963,-4.72063 0.0701,-0.73432 -0.0438,-2.01937 -0.34168,-3.85518 -0.29786,-1.83581 -0.42927,-3.53172 -0.39423,-5.08779 0.035,-1.55607 0.43803,-2.78866 1.209,-3.69782 0.52565,-0.62943 1.41924,-0.94413 2.6808,-0.94413 0.035,-1.29381 0.63954,-2.22044 1.8135,-2.77992 1.17395,-0.55949 2.44427,-0.74306 3.81096,-0.55074 1.3667,0.19232 2.41799,0.5857 3.1539,1.18015 z m -33.0108,-43.377326 c 0.10512,-0.594458 0.0613,-1.118962 -0.13142,-1.573547 -0.19273,-0.454574 -0.39423,-0.716838 -0.60449,-0.786768 -0.31539,-0.06993 -0.47309,0.05245 -0.47309,0.36716 0.0701,0.174838 0.1577,0.279746 0.26282,0.314711 0.35043,0 0.47309,0.262253 0.36795,0.786768 -0.10512,0.699355 0.035,1.049032 0.42053,1.049032 0.10513,0 0.1577,-0.05246 0.1577,-0.157356 z m 12.66815,-0.839227 c 0,-0.384643 -0.0876,-0.725579 -0.26282,-1.022797 -0.17522,-0.297229 -0.36796,-0.515774 -0.57822,-0.655647 -0.21025,-0.139874 -0.36795,-0.192322 -0.47309,-0.157356 -0.4906,0.03496 -0.61325,0.157356 -0.36795,0.36716 0.0701,0.03496 0.14018,0.06994 0.21026,0.104908 0.49061,0.139873 0.806,0.68186 0.94618,1.625995 0,0.104897 0.14016,0.06993 0.42051,-0.104908 z m 34.16723,59.401243 c 0.38548,0.43709 0.59574,0.8567 0.63079,1.25884 0.035,0.40212 -0.009,0.79551 -0.13142,1.18015 -0.12265,0.38464 -0.39423,0.76929 -0.81476,1.15393 -0.42052,0.38465 -0.83227,0.72558 -1.23527,1.0228 -0.40301,0.29723 -0.92865,0.62068 -1.57695,0.97036 -0.64831,0.34967 -1.20023,0.63815 -1.6558,0.86544 -0.45557,0.2273 -1.01625,0.49829 -1.68208,0.813 -0.66582,0.31471 -1.1389,0.542 -1.41925,0.68187 -1.33166,0.66439 -2.82974,1.64347 -4.4943,2.93728 -1.66457,1.29381 -2.98744,2.41276 -3.96867,3.35689 -0.59573,0.55949 -1.7872,0.90042 -3.57441,1.0228 -1.78722,0.12239 -3.34663,-0.13112 -4.67829,-0.76054 -0.63077,-0.31471 -1.14766,-0.72558 -1.55066,-1.23261 -0.403,-0.50703 -0.69211,-0.95287 -0.86732,-1.33751 -0.17522,-0.38465 -0.5607,-0.72558 -1.15643,-1.0228 -0.59573,-0.29723 -1.41925,-0.46332 -2.47055,-0.49829 -1.54191,-0.035 -3.81971,-0.0524 -6.83346,-0.0524 -0.66581,0 -1.66454,0.0262 -2.9962,0.0787 -1.33165,0.0525 -2.34789,0.0962 -3.04876,0.13113 -1.54191,0.035 -2.93487,0.29722 -4.17892,0.78677 -1.24404,0.48955 -2.18144,1.01406 -2.81222,1.57355 -0.63078,0.55948 -1.39298,1.05776 -2.28658,1.49486 -0.89361,0.4371 -1.831,0.63816 -2.81222,0.60319 -1.01627,-0.035 -2.96115,-0.57696 -5.83472,-1.62599 -2.87357,-1.04904 -5.4317,-1.80083 -7.674484,-2.25541 -0.665826,-0.13987 -1.559422,-0.30597 -2.680813,-0.49829 -1.121392,-0.19232 -1.997466,-0.34968 -2.628249,-0.47206 -0.630782,-0.12239 -1.322881,-0.28849 -2.076316,-0.49829 -0.753435,-0.20981 -1.340405,-0.46332 -1.760927,-0.76055 -0.420522,-0.29722 -0.718387,-0.63816 -0.893604,-1.0228 -0.350435,-0.80426 -0.227785,-1.96692 0.367954,-3.48802 0.595739,-1.5211 0.911126,-2.47395 0.94617,-2.85861 0.03504,-0.55948 -0.03504,-1.25882 -0.210259,-2.09805 -0.175219,-0.83923 -0.350433,-1.58228 -0.525651,-2.22918 -0.175217,-0.64691 -0.254064,-1.28506 -0.236542,-1.91449 0.01752,-0.62941 0.201497,-1.10148 0.551932,-1.41618 0.490609,-0.41962 1.489334,-0.66439 2.996204,-0.73432 1.506869,-0.0699 2.558159,-0.27974 3.153897,-0.62942 1.051306,-0.62942 1.787208,-1.24134 2.207729,-1.8358 0.420523,-0.59445 0.630781,-1.48611 0.630781,-2.67502 0,0.99658 0.928648,-1.57354 0.788474,-2.41277 -0.105131,-0.55948 -0.140173,-1.22386 -0.10513,-1.99315 0.03504,-1.01406 0.210259,-1.92322 0.525649,-2.72747 0.315392,-0.80426 0.735905,-1.626 1.261565,-2.46522 0.52565,-0.83923 0.91112,-1.57354 1.15642,-2.20297 0.28035,-0.73431 0.74467,-1.99314 1.39298,-3.77649 0.64831,-1.783365 1.16518,-3.147085 1.55066,-4.091221 0.38549,-0.944124 0.91113,-2.010627 1.57695,-3.199532 0.66583,-1.188905 1.34917,-2.133017 2.05004,-2.832372 3.85479,-5.000401 6.02745,-8.409702 6.51805,-10.228031 -0.42052,-3.916393 -0.70086,-9.33632 -0.84103,-16.259947 -0.0701,-3.147096 0.35042,-5.795864 1.26156,-7.946388 0.91112,-2.150523 2.7684,-3.977558 5.57188,-5.481176 1.3667,-0.734319 3.18893,-1.101479 5.46676,-1.101479 1.85731,-0.03497 3.71458,0.201062 5.57188,0.708096 1.85731,0.507033 3.41672,1.2326 4.67828,2.176735 1.99748,1.46864 3.60069,3.592905 4.80971,6.372852 1.209,2.779936 1.72587,5.358773 1.55066,7.736584 -0.17522,3.321934 0.35042,7.063429 1.57695,11.224603 1.19148,3.951358 3.52183,7.762796 6.99114,11.434407 1.92739,2.063099 3.67078,4.91293 5.23021,8.549588 1.55944,3.636651 2.60197,6.976021 3.12762,10.018211 0.28035,1.71343 0.36795,3.1908 0.26282,4.43215 -0.10512,1.24136 -0.31538,2.2117 -0.63078,2.91105 -0.31539,0.69936 0.45556,3.51426 0.94617,3.09464 0.035,1.08401 0.17522,2.07183 0.42052,2.9635 0.24531,0.89169 0.49937,1.59978 0.7622,2.12429 0.26282,0.52452 0.62201,1.0228 1.07757,1.49487 0.45557,0.47206 0.82353,0.80425 1.10387,0.99657 0.28035,0.19233 0.65706,0.41962 1.13015,0.68187 0.47308,0.26226 0.76219,0.42835 0.86732,0.49829 0.70087,0.41961 1.24404,0.84796 1.62951,1.28506 z"
       id="path26" /></g><path
     style="fill:url(#linearGradient41);stroke:#000000;stroke-width:0.0134486"
     d="m 55.436372,33.55224 3.348564,-3.356159 -3.359943,-3.355072 -1.862002,0.0012 2.572212,2.594742 -9.870404,0.0061 -0.0092,1.551354 9.914357,-0.0635 -2.601122,2.621856 z"
     id="path2-5" /></svg>
